<svg width="179" height="162" viewBox="0 0 179 162" fill="none" xmlns="http://www.w3.org/2000/svg">
<path d="M109.881 35.4808C112.081 33.9308 114.141 32.1008 116.521 30.8808C122.771 27.6708 128.041 28.4108 132.531 33.8008C142.061 45.2808 141.671 58.7108 140.011 72.5108C138.331 64.2708 136.991 56.2208 134.921 48.3508C134.061 45.0708 132.021 41.8808 129.851 39.2008C125.881 34.2908 122.011 34.5308 117.441 39.4708C127.521 49.0008 139.071 57.7808 136.881 74.4908C138.721 75.0408 140.681 75.5608 142.591 76.2208C152.291 79.5408 155.861 87.7508 151.051 96.8408C145.211 107.871 135.191 113.981 123.531 117.871C125.881 116.181 128.221 114.491 130.571 112.811C137.351 107.951 142.951 102.051 146.261 94.3008C148.781 88.3908 146.421 84.5408 139.651 83.5208C136.571 97.0208 134.481 111.231 119.251 118.011C119.551 119.151 119.921 120.511 120.251 121.871C123.281 134.291 116.271 142.691 103.501 141.411C92.0206 140.261 82.2706 134.891 73.5506 127.451C79.4706 129.721 85.2806 132.361 91.3406 134.131C95.5806 135.371 100.161 135.871 104.601 135.891C112.371 135.921 114.751 132.641 113.291 124.481C99.9306 128.371 86.4506 134.761 73.1006 124.191C71.4606 125.641 69.8306 127.151 68.1306 128.571C61.6206 134.041 53.1806 133.951 48.0706 127.301C39.3606 115.951 39.6406 102.761 41.2506 88.8608C42.9906 97.3708 44.2706 105.281 46.3106 112.981C47.2206 116.421 49.2406 119.801 51.5106 122.601C55.5006 127.521 59.4706 127.191 64.0106 122.051C53.8906 112.631 42.1206 104.031 44.4706 87.2708C42.9906 86.8108 41.3706 86.3308 39.7806 85.7908C27.6606 81.6808 24.5306 71.5308 32.1906 61.1508C38.3206 52.8408 49.0506 45.3708 59.6706 42.6208C56.8606 44.5608 53.9806 46.4208 51.2506 48.4708C44.2406 53.7408 37.8906 59.6208 34.7906 68.1308C32.7706 73.6608 35.2006 77.2708 41.5306 78.1008C44.5906 64.6008 46.8206 50.4508 62.0706 43.7708C61.6406 41.9208 61.0506 39.8208 60.6906 37.6808C58.9506 27.3208 64.1006 20.5908 74.6606 20.4108C88.0206 20.1908 99.1106 26.0608 108.921 34.6808C105.711 33.3108 102.511 31.9508 99.3006 30.5808C91.7406 27.3608 84.0606 24.8008 75.6506 25.7908C68.3106 26.6508 66.3306 29.4908 68.2206 37.0708C70.3306 36.3508 72.3706 35.4908 74.5006 34.9508C85.6606 32.1308 96.8906 28.4108 107.381 37.0308C107.631 37.2208 109.021 36.0308 109.881 35.4808ZM112.281 122.491C107.381 111.951 99.3606 105.321 90.5706 99.3708C85.0906 103.021 81.1006 107.391 78.8406 113.351C76.7606 118.841 77.8306 121.381 83.5206 123.511C93.1406 127.081 102.421 124.541 112.281 122.491ZM115.751 41.1008C109.741 50.2508 107.681 59.9608 107.001 70.0608C106.951 70.8408 107.951 72.3008 108.641 72.4208C114.071 73.3708 119.561 74.7508 125.001 74.6508C130.561 74.5408 132.051 71.8908 131.221 66.2908C129.671 55.8708 122.771 48.8008 115.751 41.1008ZM43.9106 78.8908C54.6806 79.5808 63.8706 76.5008 72.7706 72.3608C73.6406 71.9508 74.5906 69.9708 74.3106 69.1108C72.7406 64.3208 71.4606 59.2508 68.8406 55.0508C64.9306 48.7908 61.5106 48.8608 56.2006 54.2108C49.5406 60.9208 46.5306 69.4408 43.9106 78.8908ZM69.6806 39.1208C69.3406 39.6608 69.0106 40.1908 68.6706 40.7308C72.9606 45.6008 76.9306 50.8108 81.6106 55.2708C90.4006 63.6408 95.6306 62.4508 101.181 51.3808C101.541 50.6708 101.801 49.9108 102.121 49.1808C104.921 42.7908 103.421 39.5508 96.4606 37.6608C87.3506 35.1808 78.4906 36.9908 69.6806 39.1208ZM137.381 82.9108C126.491 82.1208 117.321 85.2708 108.421 89.3908C107.571 89.7808 106.701 91.8708 107.021 92.7408C108.861 97.7508 110.611 102.901 113.271 107.481C115.931 112.061 120.011 112.211 124.001 108.551C131.391 101.791 134.621 92.8408 137.381 82.9108ZM65.3506 120.361C71.9006 111.441 73.5506 101.591 74.2806 91.5008C74.3406 90.6908 72.9906 89.1708 72.1006 89.0008C67.1406 88.0908 62.1306 86.9608 57.1206 86.9108C51.0306 86.8508 49.2006 89.5108 50.1306 95.5408C51.7106 105.781 58.6106 112.711 65.3506 120.361ZM84.8606 80.4708C84.8306 83.9108 88.2706 88.0708 90.9806 87.1108C93.4806 86.2308 96.9506 85.4008 96.5306 81.1008C96.2106 77.8508 93.0206 73.6308 90.2706 74.4508C87.6506 75.2408 84.1906 76.2908 84.8606 80.4708Z" fill="white"/>
<path d="M97.67 84.85L90.84 88.8L84 84.85V76.95L90.84 73L97.67 76.95V84.85Z" fill="black"/>
</svg>
